<svg xmlns="http://www.w3.org/2000/svg" viewBox="0 0 860 700">
  <defs>
    <linearGradient id="bg" x1="0" y1="0" x2="1" y2="1">
      <stop offset="0" stop-color="#e6fbff"/>
      <stop offset="1" stop-color="#d9f0ff"/>
    </linearGradient>
    <linearGradient id="coat" x1="0" y1="0" x2="1" y2="1">
      <stop offset="0" stop-color="#ffffff"/>
      <stop offset="1" stop-color="#dcebf2"/>
    </linearGradient>
  </defs>
  <rect width="860" height="700" rx="48" fill="url(#bg)"/>
  <circle cx="682" cy="124" r="76" fill="#bceef2" opacity=".7"/>
  <circle cx="145" cy="565" r="110" fill="#c8e8ff" opacity=".7"/>
  <rect x="80" y="82" width="310" height="88" rx="24" fill="#fff" opacity=".92"/>
  <circle cx="127" cy="126" r="23" fill="#12a9b8"/>
  <path d="M116 126h22M127 115v22" stroke="#fff" stroke-width="5" stroke-linecap="round"/>
  <text x="166" y="119" font-size="18" font-family="Arial" fill="#123747" font-weight="700">Бережный приём</text>
  <text x="166" y="145" font-size="14" font-family="Arial" fill="#64808e">Без спешки и лишнего стресса</text>

  <ellipse cx="560" cy="596" rx="220" ry="42" fill="#a8dbe5" opacity=".38"/>
  <circle cx="545" cy="230" r="92" fill="#f2cdb6"/>
  <path d="M466 228c2-88 56-123 111-92 39 21 45 80 34 119-17-20-35-39-76-42-22-1-44 5-69 15z" fill="#31495e"/>
  <path d="M458 350c28-56 74-78 132-62 71 20 108 112 108 237v93H377v-92c0-76 25-139 81-176z" fill="url(#coat)"/>
  <path d="M535 322c8 17 27 26 47 17" fill="none" stroke="#bd8067" stroke-width="5" stroke-linecap="round"/>
  <circle cx="512" cy="233" r="6" fill="#263b49"/>
  <circle cx="571" cy="233" r="6" fill="#263b49"/>
  <path d="M528 270c11 7 24 7 35 0" fill="none" stroke="#a85f55" stroke-width="4" stroke-linecap="round"/>
  <path d="M441 430c41 14 77 23 107 28M655 430c-43 14-77 23-107 28" fill="none" stroke="#a4c2ce" stroke-width="5"/>
  <circle cx="548" cy="461" r="28" fill="#12a9b8"/>
  <path d="M536 461h24M548 449v24" stroke="#fff" stroke-width="5" stroke-linecap="round"/>
  <rect x="632" y="244" width="155" height="124" rx="24" fill="#fff" opacity=".94"/>
  <text x="658" y="279" font-size="13" font-family="Arial" fill="#64808e">Ближайшее окно</text>
  <text x="658" y="313" font-size="25" font-family="Arial" fill="#123747" font-weight="700">Сегодня</text>
  <text x="658" y="342" font-size="18" font-family="Arial" fill="#12a9b8" font-weight="700">16:30</text>
</svg>